<?xml version="1.0" encoding="UTF-8"?>
<!DOCTYPE svg PUBLIC "-//W3C//DTD SVG 1.1//EN" "http://www.w3.org/Graphics/SVG/1.1/DTD/svg11.dtd">
<!-- Creator: CorelDRAW X7 -->
<svg xmlns="http://www.w3.org/2000/svg" xml:space="preserve" width="42.3332mm" height="42.3332mm" version="1.1" style="shape-rendering:geometricPrecision; text-rendering:geometricPrecision; image-rendering:optimizeQuality; fill-rule:evenodd; clip-rule:evenodd"
viewBox="0 0 4233 4233"
 xmlns:xlink="http://www.w3.org/1999/xlink">
 <defs>
  <style type="text/css">
   <![CDATA[
    .fil0 {fill:white}
   ]]>
  </style>
 </defs>
 <g id="Layer_x0020_1">
  <metadata id="CorelCorpID_0Corel-Layer"/>
  <path class="fil0" d="M2117 3760c-118,0 -233,-12 -343,-36 -44,-223 -240,-391 -476,-391 -80,0 -156,20 -223,55 -367,-302 -602,-759 -602,-1271 0,-459 188,-873 490,-1171 61,72 152,118 254,118 182,0 330,-148 330,-330 0,-53 -12,-102 -34,-146 187,-74 391,-115 604,-115 353,0 681,112 949,302 -56,35 -93,96 -93,167 0,108 88,196 196,196 78,0 145,-46 177,-112 257,290 414,672 414,1091 0,907 -736,1643 -1643,1643zm-877 -1678c-225,0 -408,-183 -408,-408 0,-225 183,-408 408,-408 225,0 407,183 407,408 0,225 -182,408 -407,408zm665 856c-159,0 -289,-129 -289,-289 0,-159 130,-289 289,-289 160,0 289,130 289,289 0,160 -129,289 -289,289zm1263 -728c-180,0 -326,-146 -326,-327 0,-180 146,-326 326,-326 180,0 326,146 326,326 0,181 -146,327 -326,327zm-930 -569c-126,0 -228,-102 -228,-227 0,-126 102,-228 228,-228 125,0 227,102 227,228 0,125 -102,227 -227,227zm-390 -607c-75,0 -135,-61 -135,-136 0,-74 60,-135 135,-135 75,0 136,61 136,135 0,75 -61,136 -136,136zm-1032 1484c-85,0 -155,-69 -155,-155 0,-85 70,-155 155,-155 86,0 156,70 156,155 0,86 -70,155 -156,155zm1534 921c-86,0 -155,-70 -155,-156 0,-85 69,-155 155,-155 86,0 155,70 155,155 0,86 -69,156 -155,156zm582 -664c-61,0 -110,-49 -110,-110 0,-61 49,-111 110,-111 61,0 110,50 110,111 0,61 -49,110 -110,110z"/>
 </g>
</svg>
