<?xml version="1.0" encoding="UTF-8"?>
<!DOCTYPE svg PUBLIC "-//W3C//DTD SVG 1.1//EN" "http://www.w3.org/Graphics/SVG/1.1/DTD/svg11.dtd">
<!-- Creator: CorelDRAW X7 -->
<svg xmlns="http://www.w3.org/2000/svg" xml:space="preserve" width="42.3332mm" height="42.3332mm" version="1.1" style="shape-rendering:geometricPrecision; text-rendering:geometricPrecision; image-rendering:optimizeQuality; fill-rule:evenodd; clip-rule:evenodd"
viewBox="0 0 4233 4233"
 xmlns:xlink="http://www.w3.org/1999/xlink">
 <defs>
  <style type="text/css">
   <![CDATA[
    .fil0 {fill:white}
   ]]>
  </style>
 </defs>
 <g id="Layer_x0020_1">
  <metadata id="CorelCorpID_0Corel-Layer"/>
  <g id="_2436809674080">
   <path class="fil0" d="M2609 1941c303,106 477,181 579,303 30,25 214,232 207,266 -51,-59 -114,-108 -234,-89 -28,1 -57,0 -82,-2 -39,-3 -47,-7 -75,-12 -74,-13 -165,-76 -210,-133 -25,-33 -45,-70 -65,-107 -19,-37 -40,-119 -67,-148 -14,-14 -53,-76 -53,-78zm-2171 -166c0,-214 141,-404 334,-487 300,-127 652,25 867,235 24,23 60,69 80,99 28,41 114,199 102,261l-352 -67c1,20 217,230 221,257 -2,15 -26,40 -37,49 -20,15 -26,28 -41,41 -437,395 -757,598 -857,1213 -10,62 -66,321 -44,354 204,-539 1497,-1489 2329,-924 -130,7 -606,19 -1318,444 657,-340 1214,-406 1518,-368 -303,55 -731,165 -1079,579 380,-330 740,-530 1230,-517 -1,5 -365,158 -608,489 231,-220 391,-384 675,-437 107,-40 251,13 435,-77 26,-13 71,-52 95,-73 26,-22 46,-71 46,-118 0,-116 -86,-185 -140,-270l-119 -183c-23,-53 -80,-138 -113,-189 -13,-21 -29,-43 -40,-61 -12,-20 -25,-45 -38,-63 -50,-69 -110,-176 -166,-237 -308,-336 -454,-486 -928,-584 -101,-21 -268,-1 -356,16 -25,5 -187,62 -200,73 51,52 157,207 162,253 -24,-9 -203,-159 -237,-187 -29,-25 -87,-76 -114,-96 -94,-68 -160,-109 -259,-163 -296,-161 -649,-202 -949,-8 -96,62 -227,199 -265,309 -5,15 -9,22 -17,34 -8,11 -5,21 -11,36 -100,249 -22,527 134,728 125,162 532,404 738,300 -271,-70 -445,-108 -608,-392 -37,-64 -70,-175 -70,-269z"/>
   <path class="fil0" d="M1569 970c21,15 49,29 75,41 56,27 55,-61 103,-107 127,-124 239,-164 422,-138 166,24 449,222 560,359 -32,-138 -106,-282 -189,-374 -80,-89 -199,-191 -335,-226 -72,-18 -173,-32 -253,-10 -187,51 -391,256 -383,455z"/>
  </g>
 </g>
</svg>
