<?xml version="1.0" encoding="UTF-8"?>
<!DOCTYPE svg PUBLIC "-//W3C//DTD SVG 1.1//EN" "http://www.w3.org/Graphics/SVG/1.1/DTD/svg11.dtd">
<!-- Creator: CorelDRAW X7 -->
<svg xmlns="http://www.w3.org/2000/svg" xml:space="preserve" width="42.3332mm" height="42.3332mm" version="1.1" style="shape-rendering:geometricPrecision; text-rendering:geometricPrecision; image-rendering:optimizeQuality; fill-rule:evenodd; clip-rule:evenodd"
viewBox="0 0 4233 4233"
 xmlns:xlink="http://www.w3.org/1999/xlink">
 <defs>
  <style type="text/css">
   <![CDATA[
    .fil0 {fill:white}
   ]]>
  </style>
 </defs>
 <g id="Layer_x0020_1">
  <metadata id="CorelCorpID_0Corel-Layer"/>
  <path class="fil0" d="M2118 61c26,12 203,189 237,223 41,41 67,64 114,113l114 118c37,-15 122,-110 158,-141 60,-54 87,-85 178,-117 326,-113 663,188 551,537 -32,101 -117,192 -208,239 -40,21 -91,33 -106,46 11,11 16,15 31,29 56,56 146,195 186,261 219,363 222,868 54,1238 -101,224 -259,418 -454,562 -192,142 -455,253 -759,276l0 272c-1,458 -497,584 -749,317 -179,-190 -46,-330 -199,-462 -61,-53 -173,-70 -258,-24 -39,22 -64,45 -86,79 -30,46 -24,66 -38,120l-141 0 -52 0c-21,-101 55,-216 95,-269 158,-206 547,-230 714,73 64,115 32,211 76,295 103,201 387,153 434,-45 8,-34 9,-320 3,-357 -304,-23 -558,-133 -750,-275 -195,-144 -353,-338 -455,-562 -167,-370 -164,-875 55,-1238 39,-66 130,-205 186,-261 14,-14 20,-18 31,-29 -16,-13 -66,-25 -106,-46 -91,-47 -176,-138 -208,-239 -112,-349 225,-650 551,-537 91,32 118,63 178,117 35,31 121,126 157,141l115 -118c47,-49 73,-72 114,-113 34,-34 211,-211 237,-223zm-785 1229c16,-22 60,-69 82,-91 26,-25 73,-56 86,-91l-90 -77c-22,14 -41,41 -59,57 -70,60 -121,108 -181,184 -68,86 -134,176 -186,295 -181,409 -104,866 159,1213 18,24 38,44 57,67 19,25 39,36 59,58 13,15 14,20 29,32 182,145 408,296 727,310l-1 -132c-246,-26 -413,-106 -568,-219 -327,-238 -504,-697 -397,-1107 58,-225 164,-376 283,-499zm241 228c11,-20 22,-32 38,-46 34,-29 35,-41 84,-81 44,-37 33,-25 38,-52 -28,-7 -56,-50 -83,-75 -61,32 -108,125 -164,153 -15,22 -17,18 -36,38 -14,14 -22,27 -38,45 -197,232 -250,586 -130,866 113,265 369,519 731,552l2 -129c-37,-14 -106,-17 -210,-60 -104,-43 -162,-94 -235,-163 -233,-223 -295,-599 -117,-895 30,-50 85,-126 120,-153zm-71 -860l-123 -127c-225,-218 -438,-38 -438,127 1,175 227,336 432,130 43,-44 95,-79 129,-130zm311 1084c12,-19 27,-27 37,-37 16,-16 24,-28 39,-44 20,-22 62,-64 75,-87 -14,-24 -52,-53 -73,-77 -26,3 -13,-1 -33,16 -44,40 -98,114 -147,143 -60,72 -106,122 -142,242 -89,291 115,641 446,688l0 -127c-41,-28 -223,-47 -308,-277 -43,-116 -28,-252 38,-357 17,-27 49,-72 68,-83zm201 -404l2 -151c-2,-43 -19,-46 -43,-69 -55,-52 -295,-293 -330,-318l-84 85c27,48 178,184 225,230 21,20 32,37 53,57 21,21 39,35 60,57 27,29 85,91 117,109zm2 489c-13,8 -20,14 -33,24 -8,7 -8,7 -14,13 -2,2 -7,7 -8,8l-8 8c-19,24 -40,39 -55,79 -50,130 28,258 115,286l3 -418zm-2 -949c2,-163 21,-166 -44,-223 -29,-26 -64,-71 -94,-86l-88 87c23,37 208,211 226,222z"/>
 </g>
</svg>
