<?xml version="1.0" encoding="UTF-8"?>
<!DOCTYPE svg PUBLIC "-//W3C//DTD SVG 1.1//EN" "http://www.w3.org/Graphics/SVG/1.1/DTD/svg11.dtd">
<!-- Creator: CorelDRAW X7 -->
<svg xmlns="http://www.w3.org/2000/svg" xml:space="preserve" width="42.3332mm" height="42.3332mm" version="1.1" style="shape-rendering:geometricPrecision; text-rendering:geometricPrecision; image-rendering:optimizeQuality; fill-rule:evenodd; clip-rule:evenodd"
viewBox="0 0 4233 4233"
 xmlns:xlink="http://www.w3.org/1999/xlink">
 <defs>
  <style type="text/css">
   <![CDATA[
    .fil1 {fill:#281632}
    .fil0 {fill:#C8E030}
   ]]>
  </style>
 </defs>
 <g id="Layer_x0020_1">
  <metadata id="CorelCorpID_0Corel-Layer"/>
  <rect class="fil0" width="4233" height="4233" rx="870" ry="870"/>
  <g id="_2136854667904">
   <path class="fil1" d="M2538 1967c259,90 408,154 495,258 26,22 183,199 177,228 -43,-50 -97,-92 -199,-76 -25,1 -49,0 -71,-1 -34,-3 -40,-7 -64,-11 -63,-11 -141,-65 -179,-114 -22,-28 -40,-60 -56,-92 -17,-31 -34,-101 -58,-126 -12,-12 -45,-65 -45,-66zm-1858 -143c1,-183 121,-346 286,-416 257,-109 558,21 742,201 20,20 51,59 68,84 24,35 98,171 87,224l-300 -57c0,16 185,196 189,220 -2,12 -23,34 -32,41 -17,13 -22,24 -35,35 -374,338 -648,512 -734,1038 -8,53 -56,275 -37,303 175,-461 1280,-1274 1993,-790 -111,6 -519,16 -1128,379 562,-291 1039,-347 1299,-315 -259,47 -626,142 -923,496 325,-282 632,-453 1052,-442 -1,4 -313,135 -520,418 198,-188 334,-329 577,-374 92,-34 215,11 373,-66 22,-11 60,-44 81,-62 22,-19 39,-61 39,-101 0,-99 -73,-158 -120,-231l-101 -157c-20,-45 -69,-118 -97,-162 -11,-17 -25,-36 -34,-52 -11,-17 -22,-38 -33,-54 -43,-59 -94,-150 -142,-202 -263,-288 -388,-417 -794,-500 -86,-18 -229,-1 -304,14 -22,4 -160,52 -171,62 43,45 134,177 138,216 -20,-7 -174,-135 -203,-159 -25,-22 -74,-66 -98,-83 -80,-58 -136,-93 -221,-139 -253,-138 -555,-173 -812,-7 -82,53 -194,170 -227,265 -4,12 -8,18 -14,28 -7,10 -4,19 -9,32 -86,212 -20,450 114,622 107,139 455,346 631,257 -231,-60 -381,-93 -520,-336 -32,-55 -60,-149 -60,-230z"/>
   <path class="fil1" d="M1648 1136c18,12 42,24 64,35 48,22 47,-53 88,-92 109,-106 205,-140 361,-118 143,21 384,190 479,307 -27,-118 -90,-241 -161,-320 -68,-76 -170,-164 -287,-193 -62,-15 -148,-28 -216,-9 -160,43 -334,219 -328,390z"/>
  </g>
 </g>
</svg>
