<?xml version="1.0" encoding="UTF-8"?>
<!DOCTYPE svg PUBLIC "-//W3C//DTD SVG 1.1//EN" "http://www.w3.org/Graphics/SVG/1.1/DTD/svg11.dtd">
<!-- Creator: CorelDRAW X7 -->
<svg xmlns="http://www.w3.org/2000/svg" xml:space="preserve" width="42.3332mm" height="42.3332mm" version="1.1" style="shape-rendering:geometricPrecision; text-rendering:geometricPrecision; image-rendering:optimizeQuality; fill-rule:evenodd; clip-rule:evenodd"
viewBox="0 0 4233 4233"
 xmlns:xlink="http://www.w3.org/1999/xlink">
 <defs>
  <style type="text/css">
   <![CDATA[
    .fil0 {fill:#C8E030}
   ]]>
  </style>
 </defs>
 <g id="Layer_x0020_1">
  <metadata id="CorelCorpID_0Corel-Layer"/>
  <g id="_2085491303504">
   <path class="fil0" d="M2437 3103c-50,0 -24,-32 -17,-57l31 -86c4,-9 1,-1 4,-8l95 -270c3,-10 4,-11 8,-20l32 -96c4,-9 2,-2 4,-8 2,-5 2,-5 4,-12 4,-11 4,-9 7,-17l48 -139c21,-49 37,-102 56,-152 3,-9 3,-11 5,-19l22 -58c3,-8 4,-11 6,-19l62 -174c3,-9 4,-10 7,-17 7,-17 34,-90 34,-101 0,-7 -1,-9 -4,-15 -7,-13 -61,-47 -79,-62 -20,13 -15,16 -21,38 -3,14 -3,6 -8,19l-24 65c-3,8 -3,13 -6,22l-46 128c-10,35 -48,125 -54,151 -5,23 -65,173 -76,215 -2,5 -2,6 -3,9l-88 249c-11,35 -53,136 -62,171 -3,10 -3,13 -7,21l-46 128c-4,13 -5,11 -10,21 -7,20 -12,45 -21,65 -11,25 -7,24 -36,25 -6,0 -11,1 -14,1 -16,1 -2,-1 -11,-1 -14,0 -19,8 -26,-7 -9,-19 -4,-255 -4,-281 0,-128 5,-966 -4,-974 -6,-7 -73,-6 -88,-7 -15,-1 -9,-2 -22,7l0 1194c0,17 3,41 -2,56 -4,11 -6,12 -14,13 -1,0 -2,1 -2,1l-37 -2c-17,0 -35,0 -52,0 -14,-21 -53,-146 -66,-182 -3,-8 -3,-14 -6,-22 -4,-13 -4,-10 -8,-20 -3,-6 -3,-15 -5,-22 -3,-9 -6,-10 -9,-19l-35 -106c-3,-7 -3,-14 -6,-21 -3,-11 -5,-9 -8,-19 -8,-25 -25,-85 -34,-105l-64 -187c-4,-9 -5,-12 -6,-21l-56 -165c-5,-11 -4,-5 -7,-20 -5,-22 -13,-43 -21,-62 -4,-8 -4,-14 -7,-24l-14 -41c-3,-9 -5,-11 -8,-20 -4,-11 -2,-10 -7,-21l-55 -165c-3,-6 -4,-15 -6,-21 -4,-14 -4,-7 -9,-19 -2,-7 -3,-15 -5,-22 -6,-14 -8,-6 -11,-20l-43 31c-2,2 -2,2 -5,5 -55,48 -43,36 -20,106 3,8 5,10 8,19 3,8 3,14 6,22 12,34 27,72 35,108 3,11 4,10 8,20l42 126c8,30 20,56 29,85l49 150c3,8 6,10 9,19l14 43c3,9 3,13 7,22l79 233c3,9 3,13 5,22 3,10 4,10 8,20l15 43c2,8 3,15 6,22 3,8 5,8 8,19l64 193c0,25 -35,18 -58,16 -20,-2 -28,-27 -38,-42l-108 -165c-24,-31 -44,-66 -66,-99 -2,-4 -1,-3 -3,-6l-93 -140c-26,-40 -50,-82 -78,-121l-7 -11c-4,-8 -3,-5 -7,-12l-176 -268c-1,-1 -2,-2 -3,-3l-31 -46c-5,-8 -10,-16 -15,-25 -3,-5 -4,-5 -8,-10 -3,-6 -5,-8 -8,-14l-45 -71c-6,-10 -11,-9 -18,-22l-29 -47c-23,-42 -55,-77 -78,-119 -13,-24 -59,-90 -77,-118 -12,-18 -21,-31 -45,-24 -14,5 -62,24 -71,31 -14,12 -8,12 6,33l13 20c3,5 3,4 6,9l141 214c6,9 6,12 13,21 6,8 9,11 14,20l395 604c3,4 4,6 7,11l114 174c3,6 4,7 7,11l54 84c11,20 29,40 41,60l13 21c4,4 4,3 7,8 6,9 20,25 14,36 -10,13 -17,6 -28,6l-31 0c-22,-2 -44,0 -57,19 -6,10 -10,15 -10,30l0 168c0,9 11,28 15,31 7,6 24,9 37,9l1115 0c13,0 30,-3 37,-9 5,-4 15,-25 15,-34l0 -156c0,-17 -2,-36 -11,-44 -19,-15 -33,-13 -53,-12 -9,0 -45,-2 -49,-5 -9,-10 64,-112 72,-124 3,-5 3,-5 6,-10 1,-1 2,-4 3,-6 1,0 1,-1 2,-1 0,-1 0,-2 1,-2l114 -177c5,-7 3,-5 7,-12l26 -41c4,-5 3,-4 7,-9 3,-5 3,-7 6,-11l94 -146c4,-8 7,-14 12,-21l54 -81c25,-43 55,-82 80,-125l119 -184c5,-8 9,-13 14,-21l121 -188c18,-27 37,-54 52,-82 14,-26 32,-48 48,-72 12,-19 2,-20 -2,-23 -16,-10 -73,-34 -88,-34 -18,0 -32,34 -40,46l-27 44c-2,3 -2,2 -4,5 -3,5 0,1 -3,6l-339 525c-3,5 -5,7 -7,11 -3,5 -4,7 -7,12l-77 119c-4,6 -5,5 -8,11 -2,4 -2,6 -5,10 -3,6 -4,6 -8,10l-134 210c-37,53 -70,109 -106,163 -5,8 -9,15 -14,22 -10,17 -23,42 -34,55 -12,13 -20,30 -30,44 -23,36 -38,83 -80,83z"/>
   <path class="fil0" d="M719 1715c22,-12 78,-41 100,-47 41,-10 77,-23 120,-27 53,-5 134,-6 182,5l131 44c8,3 10,4 17,8 8,5 8,4 16,8 17,9 31,23 50,27 4,-17 3,-30 3,-52l15 -159c4,-24 5,-53 12,-74l10 -48c1,-14 3,-13 6,-24 8,-23 14,-70 25,-92l25 -76c4,-9 2,-1 4,-11 3,-11 2,-12 7,-21 15,-31 24,-62 40,-92 3,-6 2,-4 5,-10 5,-12 2,-8 9,-19 26,-43 45,-90 73,-132 4,-7 6,-9 11,-17 32,-53 96,-142 137,-184l203 -204c10,-8 24,-18 27,-31 -50,0 -176,27 -228,38 -27,6 -115,37 -144,49l-67 27c-39,15 -144,75 -174,96l-59 40c-25,18 -51,37 -73,58 -6,5 -6,5 -12,10l-119 114c-31,32 -59,67 -86,103 -7,10 -10,13 -17,23 -6,9 -10,12 -16,21l-37 58c-3,5 -4,6 -8,13l-21 34c-4,7 -4,8 -7,15 -4,8 -10,18 -15,25 -27,42 -61,141 -81,189l-41 148c-3,12 -3,24 -5,35 -7,37 -5,16 -11,65 -3,25 -12,48 -7,67z"/>
   <path class="fil0" d="M2171 618c0,97 6,183 6,279 0,27 3,44 3,67l3 359c0,27 3,41 3,67l6 276c0,27 -6,75 12,67l24 -16c5,-3 9,-6 15,-10l72 -35c7,-3 13,-4 22,-6l81 -22c11,-3 35,-3 48,-5 44,-6 104,-2 148,3 28,4 58,14 86,22 39,11 93,36 124,59 22,17 21,11 21,-39l-12 -166c-3,-17 -4,-36 -6,-52l-21 -95c-8,-35 -12,-58 -26,-94 -2,-7 -3,-14 -6,-22 -3,-13 -6,-12 -11,-31l-12 -34c-4,-11 -6,-11 -10,-21 -18,-45 -42,-99 -68,-140 -4,-7 -7,-12 -11,-20l-5 -10c-4,-7 -1,-1 -5,-10 -11,-20 -38,-56 -47,-70l-49 -70c-4,-5 -8,-9 -13,-14 -53,-57 -88,-108 -160,-166 -3,-2 -4,-3 -6,-5l-5 -5c-1,0 -3,-2 -3,-3l-67 -53c-4,-3 -13,-9 -18,-12 -6,-4 -11,-9 -18,-13 -7,-5 -11,-7 -18,-12 -12,-9 -23,-15 -35,-23 -23,-17 -23,-20 -42,-20l0 95z"/>
   <path class="fil0" d="M2336 499c7,8 22,17 31,24l125 105 79 81c0,1 2,2 2,3l68 82c15,23 36,43 50,67l57 90c5,8 5,8 10,18 7,16 18,29 24,46l61 129c3,7 4,14 7,21 3,7 6,10 9,18 18,59 41,118 51,178 2,11 4,14 6,22 10,33 22,143 27,178 6,36 6,129 6,169 14,-3 25,-15 38,-23 4,-2 5,-1 9,-3 22,-12 40,-25 65,-34 32,-11 60,-21 95,-27 54,-9 156,-11 207,4l34 9c29,7 60,22 86,37 12,7 14,10 33,10 -10,-41 -11,-83 -14,-97 -2,-12 -5,-15 -8,-29l-19 -91c-10,-27 -15,-58 -27,-86 -13,-33 -26,-72 -41,-106 -16,-33 -30,-69 -49,-101l-14 -23c-14,-22 -25,-49 -42,-69 -7,-8 -8,-12 -14,-22 0,-1 -3,-4 -4,-6 -24,-34 -48,-70 -76,-101 -7,-7 -12,-12 -17,-19l-48 -54c-22,-22 -75,-77 -101,-95 -36,-24 -67,-60 -106,-80 -17,-9 -28,-21 -43,-31l-144 -80c-7,-2 -7,-2 -13,-5l-232 -84c-25,-5 -155,-41 -168,-25z"/>
   <path class="fil0" d="M1442 1666c0,88 -3,72 28,52 27,-18 47,-27 76,-39 10,-4 2,-1 10,-6 9,-4 13,-4 21,-6 11,-3 10,-4 18,-7 23,-9 85,-20 113,-21 53,-4 123,-4 174,7l83 24 88 44c53,34 32,29 32,-195 0,-74 -6,-138 -6,-205l-8 -519c-4,-29 -3,-250 -10,-256 -3,-4 -7,1 -14,7l-44 36c-6,6 -7,6 -14,11l-12 12c-44,41 -41,35 -84,78 -9,10 -17,17 -26,26l-40 41c-4,4 -8,9 -12,15 -5,5 -6,8 -11,13l-13 15c-6,7 -6,6 -12,12 -27,29 -73,97 -97,131l-66 108 -69 142c-16,42 -43,117 -53,158l-38 174c-2,13 -3,37 -4,51 -5,34 -10,59 -10,97z"/>
   <path class="fil0" d="M1509 3437c-1,9 -3,11 -3,21 0,40 -6,242 5,265 7,13 10,18 18,21 6,3 7,2 13,3l1144 -1c28,0 39,-24 39,-37l0 -254c0,-15 -3,-17 -18,-19 -41,-3 -38,4 -69,-1 -23,-4 -851,-1 -948,-1 -64,0 -117,3 -181,3z"/>
  </g>
 </g>
</svg>
