<?xml version="1.0" encoding="UTF-8"?>
<!DOCTYPE svg PUBLIC "-//W3C//DTD SVG 1.1//EN" "http://www.w3.org/Graphics/SVG/1.1/DTD/svg11.dtd">
<!-- Creator: CorelDRAW X7 -->
<svg xmlns="http://www.w3.org/2000/svg" xml:space="preserve" width="42.3332mm" height="42.3332mm" version="1.1" style="shape-rendering:geometricPrecision; text-rendering:geometricPrecision; image-rendering:optimizeQuality; fill-rule:evenodd; clip-rule:evenodd"
viewBox="0 0 4233 4233"
 xmlns:xlink="http://www.w3.org/1999/xlink">
 <defs>
  <style type="text/css">
   <![CDATA[
    .fil0 {fill:#C8E030}
   ]]>
  </style>
 </defs>
 <g id="Layer_x0020_1">
  <metadata id="CorelCorpID_0Corel-Layer"/>
  <path class="fil0" d="M2117 3424c-94,0 -185,-10 -273,-28 -35,-178 -191,-311 -379,-311 -64,0 -124,15 -177,43 -292,-240 -479,-604 -479,-1011 0,-365 149,-695 390,-932 48,58 121,94 202,94 145,0 263,-117 263,-263 0,-41 -10,-81 -27,-116 148,-59 310,-91 480,-91 281,0 542,89 755,240 -44,28 -74,77 -74,133 0,86 70,156 156,156 62,0 115,-37 140,-89 206,231 330,535 330,868 0,722 -585,1307 -1307,1307zm-698 -1335c-179,0 -324,-145 -324,-325 0,-179 145,-324 324,-324 179,0 324,145 324,324 0,180 -145,325 -324,325zm529 681c-127,0 -230,-103 -230,-230 0,-127 103,-230 230,-230 128,0 231,103 231,230 0,127 -103,230 -231,230zm1005 -579c-143,0 -260,-117 -260,-260 0,-143 117,-259 260,-259 143,0 260,116 260,259 0,143 -117,260 -260,260zm-740 -453c-100,0 -181,-81 -181,-181 0,-100 81,-181 181,-181 100,0 181,81 181,181 0,100 -81,181 -181,181zm-310 -483c-60,0 -108,-48 -108,-108 0,-59 48,-108 108,-108 60,0 108,49 108,108 0,60 -48,108 -108,108zm-821 1181c-68,0 -123,-55 -123,-123 0,-68 55,-124 123,-124 68,0 124,56 124,124 0,68 -56,123 -124,123zm1220 732c-68,0 -123,-55 -123,-123 0,-68 55,-124 123,-124 68,0 124,56 124,124 0,68 -56,123 -124,123zm463 -527c-48,0 -87,-40 -87,-88 0,-49 39,-88 87,-88 49,0 88,39 88,88 0,48 -39,88 -88,88z"/>
 </g>
</svg>
