<?xml version="1.0" encoding="UTF-8"?>
<!DOCTYPE svg PUBLIC "-//W3C//DTD SVG 1.1//EN" "http://www.w3.org/Graphics/SVG/1.1/DTD/svg11.dtd">
<!-- Creator: CorelDRAW X7 -->
<svg xmlns="http://www.w3.org/2000/svg" xml:space="preserve" width="42.3332mm" height="42.3332mm" version="1.1" style="shape-rendering:geometricPrecision; text-rendering:geometricPrecision; image-rendering:optimizeQuality; fill-rule:evenodd; clip-rule:evenodd"
viewBox="0 0 4233 4233"
 xmlns:xlink="http://www.w3.org/1999/xlink">
 <defs>
  <style type="text/css">
   <![CDATA[
    .fil0 {fill:#C8E030}
   ]]>
  </style>
 </defs>
 <g id="Layer_x0020_1">
  <metadata id="CorelCorpID_0Corel-Layer"/>
  <g id="_2085491312816">
   <path class="fil0" d="M994 3274c0,19 7,64 15,82 5,11 9,24 14,33l52 70c3,4 3,3 6,6l9 9c0,0 1,1 1,1 0,0 1,1 1,1l34 28c11,9 22,20 34,25 5,3 3,1 9,5 0,0 2,1 2,2l92 49c18,11 75,32 96,38 14,4 13,7 28,10 14,3 17,7 36,11l57 18c5,1 11,1 19,3 8,2 10,4 18,6 8,2 12,2 22,3 7,1 12,5 18,6l82 15c18,2 30,8 42,8 31,2 56,8 85,12 21,3 45,3 65,7 16,4 91,6 115,6 14,0 10,2 21,4 15,3 214,6 239,3 26,-4 60,-2 88,-6 29,-4 64,-4 91,-6l107 -11c27,-7 55,-6 81,-14 13,-3 29,-3 42,-5 11,-1 9,-2 19,-5 15,-5 27,-3 42,-9 14,-5 27,-4 39,-7 7,-3 8,-5 16,-7 22,-6 6,1 37,-9 7,-3 16,-3 22,-4 9,-2 9,-4 18,-7l106 -35c7,-3 10,-6 17,-8l18 -7c6,-3 11,-5 17,-8 9,-5 5,-2 15,-6 11,-4 10,-7 24,-12 8,-2 1,1 8,-4 4,-3 1,-2 7,-5 3,-1 6,-2 9,-4 0,0 1,0 1,-1l97 -67c27,-25 57,-49 73,-82 5,-9 0,-1 5,-8l23 -49c9,-23 12,-57 12,-82 0,-35 -1,-65 -6,-98l-6 -66c-2,-11 -6,-18 -7,-27 -2,-13 -1,-21 -3,-32 -3,-12 -6,-15 -8,-30 -1,-13 -5,-15 -8,-26 -3,-10 -2,-19 -6,-29l-18 -54c-3,-18 -13,-33 -19,-50 -2,-6 -2,-8 -4,-13l-19 -43c-3,-5 -1,-1 -4,-6 -3,-5 0,0 -3,-5l-36 -71c-2,-3 -2,-2 -4,-5l-47 -75c-15,-20 -28,-43 -45,-62l-24 -29c-19,-24 -40,-44 -61,-66l-18 -18c-3,-3 -5,-6 -8,-8l-105 -87c0,0 -1,0 -1,0 -3,-2 -1,-1 -5,-3l-16 -12c0,0 -1,-1 -1,-1l-15 -12c-1,0 -1,-1 -2,-1 0,0 -2,-1 -3,-2 -8,-4 -4,-2 -10,-7 -3,-1 -1,0 -5,-3l-28 -16c-21,-12 -21,-6 -54,20 -6,5 -5,4 -11,7l-4 3c-1,0 -2,2 -3,2l-23 16c-3,2 -4,3 -5,3l-18 12c-18,12 -37,20 -56,31l-37 17c-14,8 -15,6 -25,11 -19,9 -57,24 -78,28 -13,3 -13,6 -26,9 -19,4 -36,10 -57,12 -12,1 -17,5 -30,8l-46 5c-33,6 -51,7 -85,7 -33,0 -74,2 -106,-4l-121 -20c-6,-1 -6,-3 -12,-5 -15,-4 -10,0 -43,-11 -4,-1 -9,-2 -14,-4l-63 -23c-9,-5 -2,-2 -12,-6 -4,-1 -4,0 -8,-2 -5,-2 -1,0 -6,-4l-12 -5c-13,-5 -24,-14 -36,-19 -10,-4 -4,-1 -12,-5l-28 -17c-4,-2 -2,0 -6,-3l-43 -27c-5,-3 -5,-4 -10,-8l-36 -25c-24,-17 -15,-9 -39,3 0,0 -5,2 -5,2 0,0 -1,1 -1,1l-30 20c-1,0 -1,0 -2,1l-183 154c-26,26 -54,63 -71,80l-38 51c-6,9 -8,12 -15,20l-26 43c-2,3 -1,2 -3,5 -3,5 -1,2 -4,6l-10 17c0,0 -1,1 -1,1 0,1 -1,1 -1,2l-2 3c-1,3 0,3 -2,5 -3,6 -1,2 -3,7l-58 121c-6,19 -16,32 -19,52l-18 54c-4,10 -3,20 -6,29l-8 29c-1,9 0,8 -3,14 -5,13 -6,29 -8,45 -4,28 -8,25 -9,63 -1,22 -8,41 -8,64 0,25 -2,43 -2,69z"/>
   <path class="fil0" d="M1376 1608c0,31 2,60 7,85 3,19 1,41 7,60l44 141c15,37 10,21 22,48 2,4 1,3 3,7l23 41c2,4 1,1 3,5l11 19c0,0 0,1 1,1l89 112c4,3 3,2 7,6l79 69c0,1 1,1 1,1l12 9c12,10 33,21 48,31 1,0 2,1 3,2l18 11c13,9 47,23 57,28l22 10c12,6 30,14 43,17 25,5 48,16 74,20 16,3 22,7 36,9 38,5 90,12 129,12 41,0 84,-7 124,-12l28 -6c16,-5 23,-2 47,-11 8,-2 10,-2 19,-3 11,-3 7,-4 17,-8 10,-3 17,-3 26,-8 4,-2 6,-3 9,-3 19,-6 33,-15 49,-21l75 -42c7,-4 7,-5 13,-9 4,-2 6,-2 9,-4l59 -44c5,-5 7,-6 12,-11l25 -22c5,-5 7,-8 12,-13l65 -74c12,-19 32,-39 42,-60 9,-17 23,-35 30,-53l22 -48c4,-10 4,-6 7,-15l19 -51c4,-12 5,-27 9,-38 3,-5 1,1 3,-9 20,-80 28,-179 16,-261 -3,-18 -2,-42 -8,-59l-9 -39c-2,-6 -4,-10 -6,-16 -1,-8 -1,-13 -3,-19 -5,-18 -14,-34 -20,-52l-13 -34c-8,-14 -14,-32 -22,-45l-25 -44c-6,-12 -6,-7 -12,-16l-11 -18c-1,-1 -1,-1 -1,-2 -1,0 -1,-1 -1,-1 -3,-3 -1,0 -4,-4 -15,-19 -29,-41 -46,-58l-9 -9c0,0 -1,-1 -1,-1l-47 -47c-1,-1 -2,-2 -3,-3l-64 -52c0,0 -1,-1 -1,-1 0,0 -1,-1 -1,-1l-29 -18c-5,-3 -3,-2 -7,-4 -12,-8 -23,-16 -37,-22 0,0 -1,-1 -2,-1 0,0 -1,-1 -1,-1l-100 -47c-4,-1 -6,0 -11,-1 -10,-2 -16,-8 -35,-12 -15,-2 -22,-8 -37,-10 -17,-1 -20,-5 -36,-8l-133 -12 -64 3c-8,1 -15,3 -21,4 -15,2 -26,2 -41,4 -14,2 -24,7 -38,9 -17,3 -20,5 -35,9 -7,2 -12,2 -19,4 -7,2 -9,5 -17,7l-36 12c-12,3 -21,9 -32,15 -11,6 -5,0 -30,14 -3,1 -4,1 -7,3 -1,0 -3,1 -4,1 0,1 -1,1 -1,1 -14,8 -27,14 -40,23l-20 12c-18,15 -30,19 -54,40l-20 15c0,0 -1,1 -1,1 -1,0 -1,1 -2,1 -1,1 -3,3 -4,4l-80 83 -70 98c-8,15 -16,23 -22,40 -4,10 -4,7 -8,15l-21 48c-10,21 -19,48 -24,71l-8 26c-1,4 -1,6 -2,11 -1,8 -1,11 -3,18 -6,17 -7,42 -10,61 -3,27 -7,55 -7,86z"/>
   <g>
    <path class="fil0" d="M2456 930c0,18 1,35 4,49 2,12 1,24 4,35l26 83c9,22 6,12 13,28 1,2 1,2 1,5l14 24c1,2 0,0 2,2l6 11c0,1 1,1 1,1l52 65c3,2 2,2 4,4l46 41c1,0 1,0 1,0l7 5c7,6 19,13 28,18 1,1 2,1 2,2l11 6c7,5 27,13 33,16l13 6c7,4 17,9 25,10 14,3 28,10 43,12 10,2 13,4 21,5 23,3 53,8 76,8 24,0 49,-5 73,-7l16 -4c9,-3 13,-1 28,-6 4,-2 6,-2 10,-3 7,-1 5,-2 11,-4 6,-2 10,-2 15,-5 2,-1 4,-1 5,-2 11,-3 19,-8 29,-12l44 -24c4,-3 4,-3 8,-6 2,-1 3,-1 4,-2l35 -26c3,-2 4,-4 7,-6l15 -13c3,-3 4,-5 7,-8l38 -43c7,-11 19,-23 25,-35 5,-10 13,-21 17,-31l13 -28c2,-6 2,-4 4,-9l11 -30c3,-7 3,-16 6,-22 1,-3 0,0 2,-6 11,-47 16,-104 9,-153 -2,-10 -2,-24 -5,-34l-5 -23c-2,-4 -3,-6 -4,-9 0,-5 0,-8 -2,-12 -2,-10 -8,-20 -11,-30l-8 -20c-5,-8 -8,-18 -13,-26l-15 -26c-3,-7 -3,-4 -6,-9l-7 -11c0,0 0,-1 -1,-1 0,0 0,0 0,-1 -2,-2 -1,0 -2,-2 -9,-11 -17,-24 -27,-34l-5 -5c-1,0 -1,-1 -1,-1l-28 -27c0,-1 -1,-2 -1,-2l-38 -31c0,0 0,0 -1,0 0,0 0,-1 0,-1l-17 -10c-3,-2 -2,-1 -4,-3 -8,-4 -14,-9 -22,-13 0,0 -1,0 -1,0 0,0 -1,0 -1,-1l-58 -27c-2,-1 -4,0 -7,-1 -6,-1 -9,-4 -20,-7 -9,-1 -13,-5 -22,-5 -10,-1 -11,-4 -21,-6l-78 -6 -38 1c-4,1 -8,2 -12,3 -8,1 -15,1 -24,2 -8,1 -14,4 -22,5 -10,2 -12,3 -21,6 -4,1 -6,1 -10,2 -4,1 -6,3 -11,4l-20 7c-8,2 -13,6 -19,9 -7,3 -3,0 -18,8 -2,1 -3,1 -4,2 -1,0 -2,0 -2,1 -1,0 -1,0 -1,0 -8,5 -16,8 -23,13l-12 8c-11,8 -18,11 -32,23l-11 9c-1,0 -1,0 -1,0 0,1 -1,1 -1,1 -1,0 -2,2 -2,2l-48 49 -41 57c-4,9 -9,14 -13,24 -2,5 -1,4 -4,8l-12 29c-6,12 -11,27 -14,41l-5 15c-1,3 -1,4 -1,7 -1,5 -1,6 -2,11 -3,10 -4,24 -6,35 -2,16 -4,32 -4,51z"/>
    <path class="fil0" d="M909 930c0,18 2,35 4,49 2,12 1,24 5,35l26 83c8,22 5,12 13,28 1,2 0,2 1,5l14 24c1,2 0,0 1,2l7 11c0,1 0,1 0,1l53 65c2,2 1,2 3,4l47 41c0,0 0,0 1,0l6 5c8,6 20,13 29,18 0,1 1,1 1,2l11 6c7,5 28,13 33,16l13 6c7,4 18,9 25,10 15,3 29,10 44,12 9,2 12,4 21,5 22,3 53,8 75,8 25,0 50,-5 73,-7l17 -4c9,-3 13,-1 27,-6 4,-2 6,-2 11,-3 7,-1 4,-2 10,-4 6,-2 10,-2 16,-5 2,-1 3,-1 5,-2 11,-3 19,-8 28,-12l44 -24c4,-3 5,-3 8,-6 2,-1 3,-1 5,-2l35 -26c3,-2 4,-4 7,-6l14 -13c3,-3 5,-5 7,-8l38 -43c7,-11 19,-23 25,-35 5,-10 13,-21 18,-31l13 -28c2,-6 2,-4 4,-9l11 -30c2,-7 2,-16 5,-22 2,-3 1,0 2,-6 12,-47 16,-104 9,-153 -2,-10 -1,-24 -5,-34l-5 -23c-1,-4 -2,-6 -3,-9 -1,-5 -1,-8 -2,-12 -3,-10 -8,-20 -12,-30l-7 -20c-5,-8 -8,-18 -13,-26l-15 -26c-4,-7 -3,-4 -7,-9l-7 -11c0,0 0,-1 0,-1 0,0 -1,0 -1,-1 -1,-2 0,0 -2,-2 -9,-11 -17,-24 -27,-34l-5 -5c0,0 0,-1 -1,-1l-27 -27c-1,-1 -1,-2 -2,-2l-37 -31c0,0 -1,0 -1,0 0,0 -1,-1 -1,-1l-17 -10c-2,-2 -1,-1 -4,-3 -7,-4 -13,-9 -21,-13 -1,0 -1,0 -1,0 -1,0 -1,0 -1,-1l-59 -27c-2,-1 -4,0 -6,-1 -6,-1 -10,-4 -21,-7 -8,-1 -13,-5 -22,-5 -9,-1 -11,-4 -21,-6l-77 -6 -38 1c-5,1 -8,2 -12,3 -9,1 -15,1 -24,2 -8,1 -14,4 -22,5 -10,2 -12,3 -21,6 -4,1 -7,1 -11,2 -4,1 -5,3 -10,4l-21 7c-7,2 -12,6 -19,9 -6,3 -3,0 -18,8 -1,1 -2,1 -4,2 0,0 -1,0 -2,1 0,0 0,0 -1,0 -8,5 -16,8 -23,13l-11 8c-11,8 -18,11 -32,23l-12 9c0,0 0,0 -1,0 0,1 0,1 -1,1 0,0 -1,2 -2,2l-47 49 -41 57c-5,9 -9,14 -13,24 -2,5 -2,4 -4,8l-13 29c-6,12 -11,27 -14,41l-5 15c0,3 0,4 -1,7 0,5 0,6 -2,11 -3,10 -4,24 -5,35 -2,16 -5,32 -5,51z"/>
   </g>
  </g>
 </g>
</svg>
