<?xml version="1.0" encoding="UTF-8"?>
<!DOCTYPE svg PUBLIC "-//W3C//DTD SVG 1.1//EN" "http://www.w3.org/Graphics/SVG/1.1/DTD/svg11.dtd">
<!-- Creator: CorelDRAW X7 -->
<svg xmlns="http://www.w3.org/2000/svg" xml:space="preserve" width="42.3332mm" height="42.3332mm" version="1.1" style="shape-rendering:geometricPrecision; text-rendering:geometricPrecision; image-rendering:optimizeQuality; fill-rule:evenodd; clip-rule:evenodd"
viewBox="0 0 4233 4233"
 xmlns:xlink="http://www.w3.org/1999/xlink">
 <defs>
  <style type="text/css">
   <![CDATA[
    .fil0 {fill:#C8E030}
   ]]>
  </style>
 </defs>
 <g id="Layer_x0020_1">
  <metadata id="CorelCorpID_0Corel-Layer"/>
  <g id="_2085534333024">
   <path class="fil0" d="M762 1663c0,226 -15,199 70,199 151,0 976,-7 1026,7 55,16 106,43 146,86l33 45c31,48 49,101 49,160l0 432c0,57 -17,91 -39,135 -48,97 -158,160 -267,160l-1011 0c-15,31 -8,251 1,295 6,31 25,93 40,118 36,63 21,41 68,98 4,5 2,3 5,6l51 45c6,5 7,7 14,12 59,40 152,79 223,79l2084 0c32,0 61,-8 88,-16l78 -29c46,-24 84,-51 121,-89l57 -72c4,-6 5,-10 9,-17 26,-45 17,-34 32,-74 16,-42 25,-91 25,-138l0 -1465c0,-85 -31,-182 -81,-251 -46,-63 -112,-118 -184,-148 -17,-7 -19,-10 -40,-15 -63,-16 -64,-21 -149,-21l-1988 0c-38,0 -73,3 -107,8 -35,4 -91,27 -124,45 -38,21 -73,47 -103,78l-23 25c-44,55 -27,38 -57,87 -17,28 -29,75 -37,107 -7,29 -10,69 -10,108z"/>
   <path class="fil0" d="M615 2824l1150 0c60,0 97,-7 145,-35 19,-11 21,-16 35,-28 38,-31 78,-98 78,-165 0,-79 5,-439 -4,-490 -2,-14 -3,-11 -8,-21 -5,-10 -4,-13 -8,-22 -2,-8 -16,-32 -21,-38 -10,-13 -18,-22 -30,-33 -44,-45 -104,-71 -172,-71l-1169 0c-52,0 -41,60 -41,73 2,92 -6,786 4,808 7,15 19,22 41,22zm796 -457c0,50 20,96 61,124 27,19 33,26 81,29 45,2 78,-14 104,-36 66,-55 66,-165 2,-221 -102,-90 -248,-7 -248,104z"/>
   <path class="fil0" d="M1194 1142l59 4c16,1 34,-4 55,-4l1346 0c53,0 95,4 144,4 28,0 44,-5 70,-4 14,1 18,5 33,4l103 -4 -486 -133c-9,-2 -14,-5 -24,-9l-105 -28c-31,-7 -20,-2 -52,-14l-312 -83c-25,-6 -24,-10 -52,-14 -10,-2 -20,-3 -28,-6l-182 -49c-19,-6 -32,-9 -49,-14 -36,-13 -69,-18 -106,-27 -12,-3 -15,-6 -24,-9l-185 -48c-39,-10 -86,-42 -106,40 -3,13 -4,22 -7,33 -4,13 -5,13 -9,29 -2,8 -4,19 -6,30 -3,12 -6,14 -9,27 -4,13 -4,22 -7,34 -13,51 -61,200 -61,241z"/>
  </g>
 </g>
</svg>
